<?xml version="1.0" encoding="utf-8"?>
<!-- Generator: Adobe Illustrator 27.1.1, SVG Export Plug-In . SVG Version: 6.00 Build 0)  -->
<svg version="1.1" id="레이어_1" xmlns="http://www.w3.org/2000/svg" xmlns:xlink="http://www.w3.org/1999/xlink" x="0px"
	 y="0px" viewBox="0 0 56.133 19.972" enable-background="new 0 0 56.133 19.972" xml:space="preserve">
<g>
	<path fill="#C30D23" d="M2.854,14.943c-0.368-0.016-0.716-0.068-1.044-0.156c-0.328-0.087-0.596-0.292-0.804-0.612
		c-0.176-0.272-0.26-0.564-0.252-0.876c0.008-0.312,0.124-0.58,0.348-0.804c0.128-0.128,0.288-0.224,0.48-0.288
		c0.192-0.063,0.376-0.111,0.552-0.144c0.176-0.032,0.332-0.048,0.468-0.048s0.212,0,0.228,0h13.08c0.256-0.016,0.532-0.016,0.828,0
		c0.296,0.016,0.572,0.068,0.828,0.156c0.255,0.088,0.472,0.232,0.648,0.432c0.176,0.201,0.264,0.477,0.264,0.828
		c0,0.4-0.136,0.7-0.408,0.9c-0.272,0.2-0.596,0.344-0.972,0.432c-0.376,0.088-0.764,0.136-1.164,0.144
		c-0.4,0.008-0.728,0.012-0.984,0.012h-0.936c-0.32,0.016-0.632,0.02-0.936,0.012c-0.304-0.008-0.616-0.012-0.936-0.012H11.23
		c0.016,0.448,0.032,0.92,0.048,1.416c0.016,0.496-0.008,0.936-0.072,1.32c-0.032,0.304-0.108,0.596-0.228,0.876
		c-0.12,0.28-0.316,0.508-0.588,0.684c-0.24,0.16-0.52,0.244-0.84,0.252c-0.32,0.008-0.608-0.06-0.864-0.204
		c-0.208-0.128-0.364-0.312-0.468-0.552c-0.104-0.24-0.172-0.472-0.204-0.696c-0.032-0.176-0.044-0.368-0.036-0.576
		c0.008-0.208,0.012-0.4,0.012-0.576c-0.016-0.288-0.024-0.604-0.024-0.948c0-0.344,0-0.684,0-1.02h-0.6
		c-0.448,0-0.852,0.004-1.212,0.012c-0.36,0.008-0.708,0.016-1.044,0.024c-0.336,0.008-0.684,0.012-1.044,0.012
		C3.706,14.943,3.302,14.943,2.854,14.943z M3.814,7.407c0-0.016-0.004-0.192-0.012-0.528c-0.008-0.336-0.016-0.72-0.024-1.152
		C3.77,5.295,3.766,4.867,3.766,4.443s0-0.724,0-0.9c-0.24-0.016-0.488-0.024-0.744-0.024s-0.5-0.024-0.732-0.072
		S1.843,3.315,1.642,3.195S1.279,2.887,1.151,2.631c-0.192-0.368-0.196-0.72-0.012-1.056c0.184-0.336,0.46-0.568,0.828-0.696
		c0.368-0.128,0.776-0.208,1.224-0.24c0.448-0.032,0.872-0.048,1.272-0.048c0.656,0,1.472,0,2.448,0
		c0.976,0,1.984,0.004,3.024,0.012c1.04,0.008,2.048,0.012,3.024,0.012s1.792,0,2.448,0c0.32,0,0.676,0.036,1.068,0.108
		c0.392,0.072,0.708,0.236,0.948,0.492c0.112,0.128,0.196,0.28,0.252,0.456c0.056,0.176,0.084,0.36,0.084,0.552
		s-0.036,0.372-0.108,0.54c-0.072,0.168-0.18,0.308-0.324,0.42c-0.064,0.064-0.16,0.12-0.288,0.168
		c-0.304,0.128-0.636,0.176-0.996,0.144c-0.36-0.032-0.7-0.016-1.02,0.048c0.032,0.224,0.052,0.42,0.06,0.588
		c0.008,0.168,0.012,0.316,0.012,0.444v2.784c0-0.016,0.076-0.016,0.228,0c0.152,0.016,0.32,0.036,0.504,0.06
		c0.184,0.024,0.356,0.052,0.516,0.084c0.16,0.032,0.256,0.048,0.288,0.048c0.399,0.064,0.7,0.164,0.9,0.3
		c0.2,0.136,0.276,0.444,0.228,0.924c-0.032,0.4-0.116,0.692-0.252,0.876c-0.136,0.184-0.309,0.312-0.516,0.384
		c-0.208,0.072-0.452,0.104-0.732,0.096c-0.28-0.008-0.58-0.012-0.9-0.012c-0.417,0.016-0.828,0.021-1.236,0.012
		c-0.408-0.008-0.82-0.012-1.236-0.012c-0.208,0-0.492,0-0.852,0s-0.756,0-1.188,0s-0.884,0-1.356,0c-0.472,0-0.924,0-1.356,0
		c-0.432,0-0.828,0.004-1.188,0.012c-0.36,0.008-0.645,0.012-0.852,0.012c-0.432,0-0.86,0-1.284,0s-0.852-0.008-1.284-0.024
		c-0.208,0-0.448-0.016-0.72-0.048C2.535,10.039,2.27,9.975,2.015,9.879c-0.256-0.096-0.476-0.228-0.66-0.396
		s-0.292-0.388-0.324-0.66C0.983,8.455,1.058,8.179,1.259,7.995c0.2-0.184,0.448-0.315,0.744-0.396
		c0.295-0.08,0.612-0.124,0.948-0.132C3.286,7.459,3.575,7.439,3.814,7.407z M6.719,6.663c0,0.048,0.012,0.144,0.036,0.288
		c0.024,0.144,0.068,0.28,0.132,0.408h5.256V5.151c0-0.208-0.004-0.38-0.012-0.516c-0.008-0.136-0.016-0.28-0.024-0.432
		c-0.008-0.152-0.021-0.284-0.036-0.396c0-0.096-0.024-0.184-0.072-0.264h-5.16c-0.064,0.064-0.104,0.152-0.12,0.264
		c-0.032,0.128-0.04,0.328-0.024,0.6c0.016,0.272,0.032,0.52,0.048,0.744L6.719,6.663z"/>
	<path fill="#C30D23" d="M21.502,17.679c-0.256-0.016-0.508-0.052-0.756-0.108c-0.249-0.056-0.468-0.136-0.66-0.24
		s-0.348-0.252-0.468-0.444c-0.12-0.192-0.18-0.448-0.18-0.768s0.104-0.6,0.312-0.84c0.128-0.128,0.288-0.224,0.48-0.288
		s0.376-0.112,0.552-0.144c0.176-0.032,0.332-0.048,0.468-0.048c0.136,0,0.212,0,0.228,0l13.128,0.024
		c0.416,0,0.796,0.004,1.14,0.012c0.344,0.008,0.652,0.124,0.924,0.348c0.336,0.304,0.504,0.648,0.504,1.032
		c0,0.24-0.072,0.459-0.216,0.66s-0.336,0.34-0.576,0.42c-0.32,0.128-0.652,0.216-0.996,0.264c-0.344,0.048-0.684,0.08-1.02,0.096
		c-1.168,0.048-2.32,0.063-3.456,0.048c-1.136-0.016-2.24-0.024-3.312-0.024c-1.152,0-2.276,0.008-3.372,0.024
		C23.13,17.718,22.223,17.71,21.502,17.679z M34.942,9.183c0.176,0.081,0.316,0.212,0.42,0.396c0.104,0.184,0.18,0.364,0.228,0.54
		c0.08,0.352,0,0.672-0.24,0.96c-0.224,0.272-0.492,0.48-0.804,0.624s-0.644,0.244-0.996,0.3s-0.712,0.084-1.08,0.084
		c-0.369,0-0.712,0-1.032,0c-1.28,0-2.572,0.012-3.876,0.036c-1.304,0.024-2.604,0.021-3.9-0.012c-0.224,0-0.456-0.012-0.696-0.036
		c-0.24-0.024-0.472-0.072-0.696-0.144c-0.224-0.072-0.428-0.18-0.612-0.324c-0.184-0.144-0.333-0.328-0.444-0.552
		c-0.144-0.288-0.244-0.616-0.3-0.984c-0.056-0.368-0.092-0.752-0.108-1.152c-0.016-0.4-0.021-0.792-0.012-1.176
		c0.008-0.384,0.012-0.728,0.012-1.032V4.383c0-0.032-0.008-0.152-0.024-0.36c-0.016-0.208-0.021-0.444-0.012-0.708
		c0.008-0.264,0.032-0.536,0.072-0.816c0.04-0.28,0.124-0.516,0.252-0.708c0.096-0.16,0.248-0.288,0.456-0.384
		s0.42-0.168,0.636-0.216c0.216-0.048,0.412-0.08,0.588-0.096c0.176-0.016,0.288-0.024,0.336-0.024h9.6
		c0.016,0,0.144,0.004,0.384,0.012c0.24,0.008,0.504,0.036,0.792,0.084c0.288,0.048,0.567,0.136,0.84,0.264
		c0.272,0.128,0.448,0.32,0.528,0.576c0.016,0.096,0.032,0.212,0.048,0.348c0.016,0.136,0.024,0.276,0.024,0.42
		s-0.012,0.28-0.036,0.408c-0.024,0.128-0.052,0.225-0.084,0.288c-0.064,0.112-0.176,0.204-0.336,0.276
		c-0.16,0.072-0.304,0.125-0.432,0.156c-0.144,0.032-0.328,0.064-0.552,0.096c-0.225,0.032-0.488,0.048-0.792,0.048H32.35
		c-0.624-0.032-1.192-0.052-1.704-0.06c-0.512-0.008-1.02-0.008-1.524,0c-0.504,0.008-1.028,0.016-1.572,0.024
		c-0.544,0.008-1.176,0.02-1.896,0.036c-0.128,0-0.268-0.008-0.42-0.024c-0.152-0.016-0.304-0.016-0.456,0s-0.288,0.048-0.408,0.096
		s-0.196,0.136-0.228,0.264c-0.064,0.272-0.088,0.608-0.072,1.008c0.016,0.4,0.008,0.744-0.024,1.032
		c0,0.112-0.004,0.28-0.012,0.504c-0.008,0.224-0.008,0.456,0,0.696c0.008,0.24,0.036,0.464,0.084,0.672
		c0.048,0.208,0.128,0.344,0.24,0.408c0.128,0.081,0.296,0.12,0.504,0.12s0.376,0,0.504,0c1.296,0.048,2.576,0.06,3.84,0.036
		c1.264-0.024,2.528-0.036,3.792-0.036C33.766,8.823,34.414,8.943,34.942,9.183z"/>
	<path fill="#C30D23" d="M45.79,10.335c-0.112,0.016-0.353,0.024-0.72,0.024c-0.368,0-0.76-0.004-1.176-0.012
		c-0.417-0.008-0.812-0.012-1.188-0.012s-0.628,0-0.756,0h-0.024c-0.288,0-0.572-0.004-0.852-0.012
		c-0.28-0.008-0.548-0.032-0.804-0.072c-0.256-0.04-0.488-0.108-0.696-0.204c-0.208-0.096-0.376-0.24-0.504-0.432
		c-0.144-0.208-0.244-0.472-0.3-0.792c-0.057-0.32-0.096-0.628-0.12-0.924c-0.024-0.296-0.032-0.556-0.024-0.78
		c0.008-0.224,0.012-0.344,0.012-0.36V6.231c0-0.176,0-0.376,0-0.6s0.008-0.472,0.024-0.744c0-0.288,0.004-0.572,0.012-0.852
		c0.008-0.28,0.012-0.532,0.012-0.756V2.511c0-0.048,0-0.136,0-0.264c0-0.128,0.008-0.268,0.024-0.42
		c0.016-0.152,0.04-0.304,0.072-0.456c0.032-0.152,0.08-0.276,0.144-0.372c0.144-0.224,0.292-0.388,0.444-0.492
		s0.348-0.18,0.588-0.228c0.08-0.016,0.2-0.028,0.36-0.036c0.16-0.008,0.312-0.02,0.456-0.036c0.176-0.016,0.36-0.024,0.552-0.024
		h5.184c0.352,0,0.724,0.028,1.116,0.084c0.392,0.056,0.74,0.18,1.044,0.372c0.24,0.144,0.408,0.328,0.504,0.552
		s0.16,0.464,0.192,0.72c0.032,0.256,0.04,0.516,0.024,0.78c-0.016,0.264-0.024,0.508-0.024,0.732c0,0.128,0,0.272,0,0.432
		c0,0.16,0,0.4,0,0.72c0,0.32,0,0.752,0,1.296c0,0.544,0,1.272,0,2.184c0,0.176-0.012,0.364-0.036,0.564
		c-0.024,0.2-0.072,0.4-0.144,0.6c-0.072,0.2-0.168,0.38-0.288,0.54c-0.12,0.16-0.276,0.272-0.468,0.336
		c-0.416,0.176-0.852,0.26-1.308,0.252C46.666,10.339,46.222,10.335,45.79,10.335z M51.526,13.983
		c0.56,0.464,1.136,0.892,1.728,1.284c0.592,0.393,1.167,0.812,1.728,1.26c0.192,0.16,0.416,0.324,0.672,0.492
		c0.256,0.168,0.408,0.388,0.456,0.66c0.048,0.224,0.02,0.456-0.084,0.696c-0.104,0.24-0.244,0.432-0.42,0.576
		c-0.272,0.224-0.537,0.32-0.792,0.288c-0.256-0.032-0.528-0.112-0.816-0.24c-0.592-0.272-1.161-0.576-1.704-0.912
		c-0.544-0.336-1.088-0.688-1.632-1.056c-0.272-0.176-0.536-0.364-0.792-0.564s-0.512-0.388-0.768-0.564
		c-0.176-0.128-0.36-0.272-0.552-0.432c-0.192-0.16-0.416-0.224-0.672-0.192c-0.225,0.016-0.4,0.064-0.528,0.144
		s-0.272,0.184-0.432,0.312c-0.176,0.128-0.364,0.272-0.564,0.432c-0.201,0.16-0.372,0.304-0.516,0.432
		c-0.417,0.352-0.868,0.708-1.356,1.068c-0.488,0.36-0.964,0.66-1.428,0.9c-0.176,0.096-0.376,0.192-0.6,0.288
		c-0.224,0.096-0.448,0.171-0.672,0.228s-0.452,0.08-0.684,0.072c-0.232-0.008-0.444-0.06-0.636-0.156
		c-0.256-0.128-0.44-0.32-0.552-0.576c-0.112-0.256-0.128-0.52-0.048-0.792c0.08-0.272,0.26-0.512,0.54-0.72
		c0.28-0.208,0.516-0.392,0.708-0.552c0.608-0.464,1.264-0.948,1.968-1.452s1.368-0.98,1.992-1.428
		c0.272-0.208,0.544-0.388,0.816-0.54c0.272-0.152,0.544-0.34,0.816-0.564c0.464-0.352,0.928-0.556,1.392-0.612
		c0.464-0.056,0.976,0.156,1.536,0.636L51.526,13.983z M42.958,3.183c-0.144,0-0.276,0-0.396,0c-0.12,0-0.228,0.016-0.324,0.048
		c-0.224,0.016-0.408,0.112-0.552,0.288c-0.064,0.081-0.101,0.2-0.108,0.36c-0.008,0.16-0.012,0.256-0.012,0.288v1.008
		c-0.016,0.128-0.024,0.244-0.024,0.348s0,0.196,0,0.276v0.288c0,0.192,0.003,0.352,0.012,0.48c0.008,0.128,0.028,0.256,0.06,0.384
		c0.032,0.128,0.088,0.24,0.168,0.336c0.128,0.16,0.336,0.252,0.624,0.276c0.288,0.024,0.576,0.036,0.864,0.036h0.024
		c0.208,0,0.38,0,0.516,0c0.136,0,0.268,0,0.396,0s0.26,0,0.396,0c0.136,0,0.315,0,0.54,0c0.128,0,0.26,0.004,0.396,0.012
		c0.136,0.008,0.268-0.004,0.396-0.036c0.128-0.016,0.236-0.052,0.324-0.108s0.148-0.252,0.18-0.588l0.024-2.544
		c-0.016-0.128-0.021-0.256-0.012-0.384c0.008-0.128-0.004-0.256-0.036-0.384c-0.064-0.176-0.168-0.276-0.312-0.3
		c-0.144-0.024-0.288-0.036-0.432-0.036L42.958,3.183z M55.342,9.591c-0.032,0.224-0.072,0.408-0.12,0.552
		c-0.048,0.144-0.12,0.292-0.216,0.444s-0.224,0.276-0.384,0.372c-0.224,0.128-0.448,0.192-0.672,0.192
		c-0.272,0-0.536-0.088-0.792-0.264c-0.176-0.128-0.312-0.296-0.408-0.504c-0.128-0.24-0.212-0.504-0.252-0.792
		c-0.041-0.288-0.064-0.584-0.072-0.888c-0.008-0.304-0.004-0.604,0.012-0.9c0.016-0.296,0.024-0.58,0.024-0.852
		c0.016-0.688,0.024-1.412,0.024-2.172c0-0.76,0-1.476,0-2.148V2.319c-0.016-0.176-0.021-0.364-0.012-0.564
		c0.008-0.2,0.036-0.388,0.084-0.564c0.064-0.24,0.208-0.496,0.432-0.768c0.128-0.16,0.308-0.276,0.54-0.348
		c0.232-0.072,0.484-0.092,0.756-0.06c0.48,0.081,0.8,0.288,0.96,0.624c0.096,0.208,0.14,0.464,0.132,0.768
		c-0.008,0.304-0.021,0.488-0.036,0.552V9.591z"/>
</g>
<g>
	<path fill="#E84034" d="M2.1,15.448c-0.368-0.016-0.716-0.068-1.044-0.156C0.728,15.204,0.46,15,0.253,14.68
		c-0.176-0.272-0.26-0.564-0.252-0.876c0.008-0.312,0.124-0.58,0.348-0.804c0.128-0.128,0.288-0.224,0.48-0.288
		c0.192-0.063,0.376-0.111,0.552-0.144c0.176-0.032,0.332-0.048,0.468-0.048s0.212,0,0.228,0h13.08c0.256-0.016,0.532-0.016,0.828,0
		c0.296,0.016,0.572,0.068,0.828,0.156c0.255,0.088,0.472,0.232,0.648,0.432c0.176,0.201,0.264,0.477,0.264,0.828
		c0,0.4-0.136,0.7-0.408,0.9c-0.272,0.2-0.596,0.344-0.972,0.432c-0.376,0.088-0.764,0.136-1.164,0.144
		c-0.4,0.008-0.728,0.012-0.984,0.012H13.26c-0.32,0.016-0.632,0.02-0.936,0.012c-0.304-0.008-0.616-0.012-0.936-0.012h-0.912
		c0.016,0.448,0.032,0.92,0.048,1.416c0.016,0.496-0.008,0.936-0.072,1.32c-0.032,0.304-0.108,0.596-0.228,0.876
		c-0.12,0.28-0.316,0.508-0.588,0.684c-0.24,0.16-0.52,0.244-0.84,0.252c-0.32,0.008-0.608-0.06-0.864-0.204
		c-0.208-0.128-0.364-0.312-0.468-0.552c-0.104-0.24-0.172-0.472-0.204-0.696c-0.032-0.176-0.044-0.368-0.036-0.576
		c0.008-0.208,0.012-0.4,0.012-0.576C7.22,17.08,7.212,16.764,7.212,16.42c0-0.344,0-0.684,0-1.02h-0.6
		c-0.448,0-0.852,0.004-1.212,0.012c-0.36,0.008-0.708,0.016-1.044,0.024c-0.336,0.008-0.684,0.012-1.044,0.012
		C2.952,15.448,2.548,15.448,2.1,15.448z M3.06,7.912c0-0.016-0.004-0.192-0.012-0.528C3.04,7.048,3.032,6.664,3.024,6.232
		C3.016,5.8,3.012,5.372,3.012,4.948s0-0.724,0-0.9c-0.24-0.016-0.488-0.024-0.744-0.024S1.768,4,1.536,3.952S1.088,3.82,0.888,3.7
		S0.524,3.392,0.397,3.136C0.204,2.768,0.2,2.416,0.384,2.08c0.184-0.336,0.46-0.568,0.828-0.696
		c0.368-0.128,0.776-0.208,1.224-0.24c0.448-0.032,0.872-0.048,1.272-0.048c0.656,0,1.472,0,2.448,0
		c0.976,0,1.984,0.004,3.024,0.012c1.04,0.008,2.048,0.012,3.024,0.012s1.792,0,2.448,0c0.32,0,0.676,0.036,1.068,0.108
		c0.392,0.072,0.708,0.236,0.948,0.492C16.78,1.848,16.864,2,16.92,2.176c0.056,0.176,0.084,0.36,0.084,0.552
		s-0.036,0.372-0.108,0.54c-0.072,0.168-0.18,0.308-0.324,0.42c-0.064,0.064-0.16,0.12-0.288,0.168
		C15.98,3.984,15.649,4.032,15.288,4c-0.36-0.032-0.7-0.016-1.02,0.048c0.032,0.224,0.052,0.42,0.06,0.588
		c0.008,0.168,0.012,0.316,0.012,0.444v2.784c0-0.016,0.076-0.016,0.228,0c0.152,0.016,0.32,0.036,0.504,0.06
		c0.184,0.024,0.356,0.052,0.516,0.084c0.16,0.032,0.256,0.048,0.288,0.048c0.399,0.064,0.7,0.164,0.9,0.3
		c0.2,0.136,0.276,0.444,0.228,0.924c-0.032,0.4-0.116,0.692-0.252,0.876c-0.136,0.184-0.309,0.312-0.516,0.384
		c-0.208,0.072-0.452,0.104-0.732,0.096c-0.28-0.008-0.58-0.012-0.9-0.012c-0.417,0.016-0.828,0.021-1.236,0.012
		c-0.408-0.008-0.82-0.012-1.236-0.012c-0.208,0-0.492,0-0.852,0s-0.756,0-1.188,0s-0.884,0-1.356,0c-0.472,0-0.924,0-1.356,0
		s-0.828,0.004-1.188,0.012c-0.36,0.008-0.645,0.012-0.852,0.012c-0.432,0-0.86,0-1.284,0s-0.852-0.008-1.284-0.024
		c-0.208,0-0.448-0.016-0.72-0.048C1.78,10.544,1.516,10.48,1.26,10.384c-0.256-0.096-0.476-0.228-0.66-0.396S0.308,9.6,0.276,9.328
		C0.229,8.96,0.304,8.684,0.504,8.5c0.2-0.184,0.448-0.315,0.744-0.396C1.544,8.024,1.86,7.98,2.196,7.972
		C2.532,7.964,2.82,7.944,3.06,7.912z M5.964,7.168c0,0.048,0.012,0.144,0.036,0.288C6.024,7.6,6.068,7.736,6.132,7.864h5.256V5.656
		c0-0.208-0.004-0.38-0.012-0.516c-0.008-0.136-0.016-0.28-0.024-0.432c-0.008-0.152-0.021-0.284-0.036-0.396
		c0-0.096-0.024-0.184-0.072-0.264h-5.16C6.02,4.112,5.98,4.2,5.964,4.312c-0.032,0.128-0.04,0.328-0.024,0.6
		c0.016,0.272,0.032,0.52,0.048,0.744L5.964,7.168z"/>
	<path fill="#E84034" d="M20.748,18.184c-0.256-0.016-0.508-0.052-0.756-0.108c-0.249-0.056-0.468-0.136-0.66-0.24
		s-0.348-0.252-0.468-0.444c-0.12-0.192-0.18-0.448-0.18-0.768s0.104-0.6,0.312-0.84c0.128-0.128,0.288-0.224,0.48-0.288
		s0.376-0.112,0.552-0.144c0.176-0.032,0.332-0.048,0.468-0.048c0.136,0,0.212,0,0.228,0l13.128,0.024
		c0.416,0,0.796,0.004,1.14,0.012c0.344,0.008,0.652,0.124,0.924,0.348c0.336,0.304,0.504,0.648,0.504,1.032
		c0,0.24-0.072,0.459-0.216,0.66s-0.336,0.34-0.576,0.42c-0.32,0.128-0.652,0.216-0.996,0.264c-0.344,0.048-0.684,0.08-1.02,0.096
		c-1.168,0.048-2.32,0.063-3.456,0.048c-1.136-0.016-2.24-0.024-3.312-0.024c-1.152,0-2.276,0.008-3.372,0.024
		C22.376,18.223,21.468,18.215,20.748,18.184z M34.188,9.688c0.176,0.081,0.316,0.212,0.42,0.396c0.104,0.184,0.18,0.364,0.228,0.54
		c0.08,0.352,0,0.672-0.24,0.96c-0.224,0.272-0.492,0.48-0.804,0.624s-0.644,0.244-0.996,0.3s-0.712,0.084-1.08,0.084
		c-0.369,0-0.712,0-1.032,0c-1.28,0-2.572,0.012-3.876,0.036c-1.304,0.024-2.604,0.021-3.9-0.012c-0.224,0-0.456-0.012-0.696-0.036
		c-0.24-0.024-0.472-0.072-0.696-0.144c-0.224-0.072-0.428-0.18-0.612-0.324c-0.184-0.144-0.333-0.328-0.444-0.552
		c-0.144-0.288-0.244-0.616-0.3-0.984c-0.056-0.368-0.092-0.752-0.108-1.152c-0.016-0.4-0.021-0.792-0.012-1.176
		c0.008-0.384,0.012-0.728,0.012-1.032V4.888c0-0.032-0.008-0.152-0.024-0.36c-0.016-0.208-0.021-0.444-0.012-0.708
		c0.008-0.264,0.032-0.536,0.072-0.816c0.04-0.28,0.124-0.516,0.252-0.708c0.096-0.16,0.248-0.288,0.456-0.384
		c0.208-0.096,0.42-0.168,0.636-0.216c0.216-0.048,0.412-0.08,0.588-0.096c0.176-0.016,0.288-0.024,0.336-0.024h9.6
		c0.016,0,0.144,0.004,0.384,0.012c0.24,0.008,0.504,0.036,0.792,0.084c0.288,0.048,0.567,0.136,0.84,0.264
		c0.272,0.128,0.448,0.32,0.528,0.576c0.016,0.096,0.032,0.212,0.048,0.348c0.016,0.136,0.024,0.276,0.024,0.42
		s-0.012,0.28-0.036,0.408c-0.024,0.128-0.052,0.225-0.084,0.288c-0.064,0.112-0.176,0.204-0.336,0.276
		c-0.16,0.072-0.304,0.125-0.432,0.156c-0.144,0.032-0.328,0.064-0.552,0.096c-0.225,0.032-0.488,0.048-0.792,0.048h-0.744
		c-0.624-0.032-1.192-0.052-1.704-0.06c-0.512-0.008-1.02-0.008-1.524,0C27.864,4.5,27.34,4.508,26.796,4.516
		c-0.544,0.008-1.176,0.02-1.896,0.036c-0.128,0-0.268-0.008-0.42-0.024c-0.152-0.016-0.304-0.016-0.456,0s-0.288,0.048-0.408,0.096
		S23.42,4.76,23.388,4.888C23.324,5.16,23.3,5.496,23.316,5.896c0.016,0.4,0.008,0.744-0.024,1.032c0,0.112-0.004,0.28-0.012,0.504
		c-0.008,0.224-0.008,0.456,0,0.696c0.008,0.24,0.036,0.464,0.084,0.672c0.048,0.208,0.128,0.344,0.24,0.408
		c0.128,0.081,0.296,0.12,0.504,0.12s0.376,0,0.504,0c1.296,0.048,2.576,0.06,3.84,0.036c1.264-0.024,2.528-0.036,3.792-0.036
		C33.012,9.328,33.66,9.448,34.188,9.688z"/>
	<path fill="#E84034" d="M45.036,10.84c-0.112,0.016-0.353,0.024-0.72,0.024c-0.368,0-0.76-0.004-1.176-0.012
		c-0.417-0.008-0.812-0.012-1.188-0.012s-0.628,0-0.756,0h-0.024c-0.288,0-0.572-0.004-0.852-0.012
		c-0.28-0.008-0.548-0.032-0.804-0.072c-0.256-0.04-0.488-0.108-0.696-0.204c-0.208-0.096-0.376-0.24-0.504-0.432
		c-0.144-0.208-0.244-0.472-0.3-0.792c-0.057-0.32-0.096-0.628-0.12-0.924s-0.032-0.556-0.024-0.78
		c0.008-0.224,0.012-0.344,0.012-0.36V6.736c0-0.176,0-0.376,0-0.6s0.008-0.472,0.024-0.744c0-0.288,0.004-0.572,0.012-0.852
		c0.008-0.28,0.012-0.532,0.012-0.756V3.016c0-0.048,0-0.136,0-0.264c0-0.128,0.008-0.268,0.024-0.42
		c0.016-0.152,0.04-0.304,0.072-0.456c0.032-0.152,0.08-0.276,0.144-0.372c0.144-0.224,0.292-0.388,0.444-0.492
		s0.348-0.18,0.588-0.228c0.08-0.016,0.2-0.028,0.36-0.036c0.16-0.008,0.312-0.02,0.456-0.036c0.176-0.016,0.36-0.024,0.552-0.024
		h5.184c0.352,0,0.724,0.028,1.116,0.084c0.392,0.056,0.74,0.18,1.044,0.372c0.24,0.144,0.408,0.328,0.504,0.552
		s0.16,0.464,0.192,0.72c0.032,0.256,0.04,0.516,0.024,0.78c-0.016,0.264-0.024,0.508-0.024,0.732c0,0.128,0,0.272,0,0.432
		c0,0.16,0,0.4,0,0.72c0,0.32,0,0.752,0,1.296c0,0.544,0,1.272,0,2.184c0,0.176-0.012,0.364-0.036,0.564
		c-0.024,0.2-0.072,0.4-0.144,0.6c-0.072,0.2-0.168,0.38-0.288,0.54c-0.12,0.16-0.276,0.272-0.468,0.336
		c-0.416,0.176-0.852,0.26-1.308,0.252C45.912,10.844,45.468,10.84,45.036,10.84z M50.772,14.488
		c0.56,0.464,1.136,0.892,1.728,1.284c0.592,0.393,1.167,0.813,1.728,1.26c0.192,0.16,0.416,0.324,0.672,0.492
		c0.256,0.168,0.408,0.388,0.456,0.66c0.048,0.224,0.02,0.456-0.084,0.696c-0.104,0.24-0.244,0.432-0.42,0.576
		c-0.272,0.224-0.537,0.32-0.792,0.288c-0.256-0.032-0.528-0.112-0.816-0.24c-0.592-0.272-1.161-0.576-1.704-0.912
		c-0.544-0.336-1.088-0.688-1.632-1.056c-0.272-0.176-0.536-0.364-0.792-0.564s-0.512-0.388-0.768-0.564
		c-0.176-0.128-0.36-0.272-0.552-0.432c-0.192-0.16-0.416-0.224-0.672-0.192c-0.225,0.016-0.4,0.064-0.528,0.144
		c-0.128,0.08-0.272,0.184-0.432,0.312c-0.176,0.128-0.364,0.272-0.564,0.432c-0.201,0.16-0.372,0.304-0.516,0.432
		c-0.417,0.352-0.868,0.708-1.356,1.068c-0.488,0.36-0.964,0.66-1.428,0.9c-0.176,0.096-0.376,0.192-0.6,0.288
		c-0.224,0.096-0.448,0.171-0.672,0.228s-0.452,0.08-0.684,0.072c-0.232-0.008-0.444-0.06-0.636-0.156
		c-0.256-0.128-0.44-0.32-0.552-0.576c-0.112-0.256-0.128-0.52-0.048-0.792c0.08-0.272,0.26-0.512,0.54-0.72
		c0.28-0.208,0.516-0.392,0.708-0.552c0.608-0.464,1.264-0.948,1.968-1.452s1.368-0.98,1.992-1.428
		c0.272-0.208,0.544-0.388,0.816-0.54c0.272-0.152,0.544-0.34,0.816-0.564c0.464-0.352,0.928-0.556,1.392-0.612
		c0.464-0.056,0.976,0.156,1.536,0.636L50.772,14.488z M42.204,3.688c-0.144,0-0.276,0-0.396,0c-0.12,0-0.228,0.016-0.324,0.048
		c-0.224,0.016-0.408,0.112-0.552,0.288c-0.064,0.081-0.101,0.2-0.108,0.36c-0.008,0.16-0.012,0.256-0.012,0.288V5.68
		c-0.016,0.128-0.024,0.244-0.024,0.348s0,0.196,0,0.276v0.288c0,0.192,0.003,0.352,0.012,0.48c0.008,0.128,0.028,0.256,0.06,0.384
		c0.032,0.128,0.088,0.24,0.168,0.336c0.128,0.16,0.336,0.252,0.624,0.276c0.288,0.024,0.576,0.036,0.864,0.036h0.024
		c0.208,0,0.38,0,0.516,0c0.136,0,0.268,0,0.396,0s0.26,0,0.396,0c0.136,0,0.315,0,0.54,0c0.128,0,0.26,0.004,0.396,0.012
		c0.136,0.008,0.268-0.004,0.396-0.036c0.128-0.016,0.236-0.052,0.324-0.108c0.088-0.056,0.148-0.252,0.18-0.588l0.024-2.544
		c-0.016-0.128-0.021-0.256-0.012-0.384c0.008-0.128-0.004-0.256-0.036-0.384c-0.064-0.176-0.168-0.276-0.312-0.3
		c-0.144-0.024-0.288-0.036-0.432-0.036L42.204,3.688z M54.588,10.096c-0.032,0.224-0.072,0.408-0.12,0.552
		c-0.048,0.144-0.12,0.292-0.216,0.444s-0.224,0.276-0.384,0.372c-0.224,0.128-0.448,0.192-0.672,0.192
		c-0.272,0-0.536-0.088-0.792-0.264c-0.176-0.128-0.312-0.296-0.408-0.504c-0.128-0.24-0.212-0.504-0.252-0.792
		c-0.041-0.288-0.064-0.584-0.072-0.888c-0.008-0.304-0.004-0.604,0.012-0.9c0.016-0.296,0.024-0.58,0.024-0.852
		c0.016-0.688,0.024-1.412,0.024-2.172c0-0.76,0-1.476,0-2.148V2.824C51.716,2.648,51.711,2.46,51.72,2.26
		c0.008-0.2,0.036-0.388,0.084-0.564c0.064-0.24,0.208-0.496,0.432-0.768c0.128-0.16,0.308-0.276,0.54-0.348
		c0.232-0.072,0.484-0.092,0.756-0.06c0.48,0.081,0.8,0.288,0.96,0.624c0.096,0.208,0.14,0.464,0.132,0.768
		c-0.008,0.304-0.021,0.488-0.036,0.552V10.096z"/>
</g>
</svg>
