<?xml version="1.0" encoding="utf-8"?>
<svg version="1.1"  xmlns="http://www.w3.org/2000/svg" xmlns:xlink="http://www.w3.org/1999/xlink" x="0px"
	 y="0px" viewBox="0 0 2834.646 850.394" enable-background="new 0 0 2834.646 850.394" xml:space="preserve">
<g>
	<path fill="#BE2C2A" d="M983.73,449.536c-3.186-0.136-6.194-0.586-9.028-1.349c-2.837-0.757-5.155-2.521-6.951-5.291
		c-1.526-2.35-2.251-4.877-2.182-7.575c0.07-2.698,1.07-5.013,3.012-6.951c1.105-1.108,2.489-1.938,4.148-2.492
		c1.663-0.551,3.252-0.966,4.775-1.244c1.52-0.276,2.869-0.415,4.047-0.415c1.172,0,1.83,0,1.97,0h113.103
		c2.214-0.136,4.601-0.136,7.16,0c2.559,0.139,4.946,0.589,7.16,1.349c2.214,0.763,4.082,2.008,5.605,3.737
		c1.52,1.729,2.283,4.117,2.283,7.16c0,3.458-1.178,6.051-3.528,7.78c-2.356,1.732-5.155,2.977-8.404,3.737
		c-3.255,0.76-6.609,1.175-10.067,1.245c-3.461,0.073-6.298,0.104-8.509,0.104h-8.094c-2.768,0.139-5.466,0.174-8.094,0.104
		s-5.326-0.104-8.094-0.104h-7.885c0.136,3.873,0.276,7.958,0.415,12.242c0.136,4.288-0.073,8.094-0.624,11.416
		c-0.279,2.625-0.931,5.152-1.97,7.575c-1.039,2.419-2.733,4.389-5.086,5.915c-2.074,1.381-4.497,2.106-7.264,2.179
		c-2.768,0.066-5.257-0.519-7.47-1.764c-1.799-1.108-3.148-2.698-4.047-4.775c-0.899-2.074-1.488-4.082-1.764-6.017
		c-0.279-1.523-0.383-3.186-0.31-4.981c0.067-1.799,0.104-3.461,0.104-4.981c-0.139-2.489-0.209-5.219-0.209-8.195
		c0-2.973,0-5.915,0-8.822h-5.187c-3.876,0-7.369,0.035-10.482,0.105c-3.113,0.073-6.121,0.139-9.028,0.209
		c-2.904,0.07-5.915,0.101-9.028,0.101C991.095,449.536,987.602,449.536,983.73,449.536z M992.029,384.373
		c0-0.136-0.035-1.659-0.101-4.566c-0.073-2.904-0.139-6.226-0.209-9.962c-0.073-3.733-0.104-7.435-0.104-11.102
		c0-3.664,0-6.257,0-7.78c-2.074-0.136-4.221-0.209-6.431-0.209c-2.217,0-4.326-0.206-6.33-0.621
		c-2.008-0.418-3.876-1.143-5.605-2.182c-1.729-1.035-3.148-2.66-4.253-4.877c-1.659-3.179-1.697-6.226-0.104-9.129
		c1.59-2.907,3.974-4.911,7.16-6.02c3.182-1.105,6.71-1.796,10.583-2.074c3.873-0.276,7.54-0.415,11.001-0.415
		c5.671,0,12.727,0,21.166,0c8.439,0,17.154,0.035,26.15,0.104c8.993,0.07,17.708,0.101,26.15,0.101c8.436,0,15.491,0,21.166,0
		c2.768,0,5.843,0.314,9.237,0.934c3.388,0.624,6.121,2.042,8.195,4.256c0.966,1.108,1.694,2.422,2.179,3.942
		c0.484,1.523,0.728,3.113,0.728,4.772c0,1.663-0.313,3.217-0.934,4.671c-0.624,1.453-1.558,2.666-2.802,3.632
		c-0.554,0.554-1.384,1.035-2.489,1.45c-2.631,1.112-5.5,1.526-8.613,1.248c-3.113-0.276-6.055-0.136-8.819,0.415
		c0.276,1.938,0.447,3.632,0.516,5.082c0.07,1.453,0.104,2.736,0.104,3.841v24.073c0-0.136,0.656-0.136,1.973,0
		c1.314,0.139,2.764,0.31,4.357,0.519c1.59,0.206,3.078,0.45,4.462,0.725c1.381,0.279,2.21,0.415,2.492,0.415
		c3.455,0.554,6.048,1.422,7.78,2.593c1.729,1.178,2.388,3.841,1.973,7.993c-0.279,3.458-1.007,5.985-2.179,7.575
		c-1.178,1.59-2.666,2.698-4.462,3.319c-1.802,0.624-3.911,0.902-6.33,0.83c-2.422-0.066-5.016-0.101-7.784-0.101
		c-3.597,0.139-7.16,0.174-10.688,0.101c-3.528-0.066-7.09-0.101-10.687-0.101c-1.799,0-4.256,0-7.369,0s-6.536,0-10.273,0
		c-3.734,0-7.644,0-11.723,0c-4.085,0-7.993,0-11.726,0c-3.737,0-7.16,0.035-10.273,0.101c-3.113,0.073-5.57,0.105-7.369,0.105
		c-3.733,0-7.438,0-11.102,0c-3.667,0-7.366-0.067-11.102-0.206c-1.799,0-3.876-0.136-6.226-0.418
		c-2.356-0.276-4.639-0.83-6.849-1.659c-2.214-0.83-4.117-1.97-5.706-3.423c-1.593-1.453-2.527-3.353-2.802-5.706
		c-0.415-3.182,0.241-5.57,1.973-7.16c1.729-1.59,3.87-2.733,6.431-3.426c2.559-0.69,5.295-1.07,8.198-1.14
		C987.466,384.822,989.955,384.651,992.029,384.373z M1017.141,377.938c0,0.415,0.105,1.248,0.31,2.492
		c0.209,1.245,0.589,2.422,1.143,3.528h45.448v-19.092c0-1.799-0.035-3.287-0.101-4.462c-0.073-1.175-0.139-2.419-0.209-3.737
		c-0.073-1.314-0.174-2.454-0.31-3.423c0-0.833-0.209-1.59-0.624-2.283h-44.618c-0.554,0.554-0.903,1.314-1.039,2.283
		c-0.279,1.108-0.345,2.837-0.206,5.187c0.136,2.353,0.276,4.497,0.415,6.435L1017.141,377.938z"/>
	<path fill="#BE2C2A" d="M1144.978,473.194c-2.217-0.139-4.395-0.45-6.539-0.934c-2.144-0.484-4.047-1.175-5.706-2.074
		c-1.659-0.902-3.008-2.179-4.047-3.838c-1.036-1.662-1.555-3.876-1.555-6.64c0-2.768,0.896-5.19,2.698-7.264
		c1.105-1.105,2.489-1.938,4.148-2.492c1.663-0.551,3.249-0.966,4.775-1.245c1.52-0.275,2.869-0.415,4.047-0.415
		c1.172,0,1.83,0,1.97,0l113.518,0.209c3.597,0,6.881,0.035,9.858,0.101c2.974,0.073,5.637,1.073,7.993,3.011
		c2.904,2.628,4.357,5.602,4.357,8.924c0,2.074-0.624,3.974-1.868,5.706c-1.244,1.729-2.907,2.939-4.981,3.632
		c-2.768,1.105-5.64,1.868-8.613,2.283c-2.977,0.415-5.912,0.69-8.819,0.83c-10.102,0.415-20.061,0.551-29.884,0.415
		c-9.826-0.139-19.37-0.209-28.639-0.209c-9.962,0-19.684,0.07-29.158,0.209C1159.054,473.539,1151.204,473.469,1144.978,473.194z
		 M1261.194,399.731c1.52,0.694,2.73,1.833,3.632,3.423c0.899,1.593,1.555,3.148,1.97,4.671c0.693,3.043,0,5.811-2.074,8.3
		c-1.938,2.353-4.253,4.151-6.951,5.396c-2.698,1.245-5.573,2.112-8.613,2.594c-3.046,0.488-6.159,0.728-9.339,0.728
		c-3.186,0-6.159,0-8.924,0c-11.071,0-22.243,0.101-33.516,0.31c-11.28,0.206-22.518,0.174-33.725-0.104
		c-1.938,0-3.943-0.104-6.017-0.31c-2.077-0.209-4.085-0.624-6.02-1.244c-1.938-0.624-3.702-1.558-5.292-2.802
		c-1.593-1.245-2.872-2.834-3.841-4.775c-1.245-2.489-2.109-5.323-2.593-8.509c-0.484-3.179-0.798-6.501-0.934-9.959
		c-0.139-3.458-0.174-6.849-0.101-10.168c0.067-3.322,0.101-6.295,0.101-8.927v-20.13c0-0.275-0.07-1.311-0.206-3.113
		c-0.139-1.796-0.177-3.838-0.104-6.121c0.066-2.283,0.276-4.633,0.624-7.055c0.342-2.419,1.067-4.462,2.179-6.121
		c0.83-1.384,2.144-2.492,3.942-3.322c1.796-0.83,3.632-1.453,5.5-1.868c1.865-0.415,3.559-0.69,5.083-0.83
		c1.52-0.136,2.492-0.209,2.907-0.209h83.01c0.136,0,1.245,0.038,3.322,0.105c2.074,0.073,4.357,0.313,6.846,0.728
		c2.492,0.415,4.911,1.175,7.264,2.283c2.353,1.108,3.873,2.768,4.566,4.978c0.136,0.833,0.276,1.837,0.415,3.011
		c0.136,1.175,0.209,2.384,0.209,3.632c0,1.245-0.104,2.419-0.314,3.528c-0.206,1.108-0.45,1.938-0.725,2.489
		c-0.554,0.969-1.523,1.764-2.907,2.388c-1.384,0.621-2.628,1.073-3.734,1.349c-1.245,0.279-2.837,0.554-4.775,0.83
		c-1.938,0.279-4.221,0.415-6.846,0.415h-6.435c-5.396-0.275-10.307-0.447-14.734-0.519c-4.43-0.066-8.819-0.066-13.18,0
		c-4.357,0.073-8.889,0.139-13.591,0.209c-4.706,0.07-10.168,0.174-16.394,0.31c-1.111,0-2.321-0.07-3.632-0.209
		c-1.317-0.136-2.631-0.136-3.946,0c-1.314,0.139-2.489,0.415-3.528,0.833c-1.035,0.415-1.694,1.175-1.97,2.28
		c-0.554,2.356-0.763,5.26-0.624,8.718c0.136,3.461,0.07,6.435-0.206,8.924c0,0.969-0.038,2.422-0.104,4.357
		c-0.073,1.941-0.073,3.942,0,6.02c0.067,2.074,0.31,4.015,0.725,5.811c0.415,1.799,1.105,2.977,2.077,3.528
		c1.105,0.693,2.559,1.039,4.357,1.039c1.796,0,3.249,0,4.357,0c11.207,0.415,22.274,0.516,33.206,0.31
		c10.928-0.209,21.859-0.31,32.791-0.31C1251.026,396.618,1256.628,397.654,1261.194,399.731z"/>
	<path fill="#BE2C2A" d="M1354.997,409.69c-0.969,0.139-3.046,0.209-6.226,0.209c-3.186,0-6.574-0.032-10.171-0.105
		c-3.597-0.066-7.024-0.104-10.273-0.104c-3.252,0-5.431,0-6.536,0h-0.209c-2.489,0-4.946-0.032-7.366-0.101
		c-2.422-0.07-4.74-0.276-6.954-0.624c-2.214-0.345-4.221-0.934-6.017-1.764c-1.799-0.83-3.252-2.074-4.357-3.737
		c-1.248-1.796-2.112-4.079-2.597-6.846c-0.484-2.768-0.83-5.431-1.036-7.993c-0.209-2.555-0.279-4.804-0.209-6.742
		c0.07-1.938,0.104-2.973,0.104-3.113v-4.566c0-1.523,0-3.249,0-5.19c0-1.935,0.066-4.079,0.209-6.431
		c0-2.492,0.032-4.946,0.101-7.369c0.07-2.419,0.104-4.598,0.104-6.536v-6.64c0-0.415,0-1.175,0-2.283
		c0-1.105,0.07-2.315,0.209-3.632c0.136-1.314,0.342-2.628,0.621-3.942c0.275-1.314,0.69-2.388,1.244-3.217
		c1.248-1.935,2.524-3.353,3.841-4.256c1.314-0.896,3.008-1.555,5.083-1.97c0.693-0.136,1.729-0.241,3.113-0.31
		s2.698-0.174,3.946-0.314c1.52-0.136,3.113-0.206,4.772-0.206h44.827c3.04,0,6.257,0.241,9.649,0.725
		c3.388,0.488,6.4,1.558,9.028,3.217c2.074,1.244,3.528,2.837,4.357,4.772c0.83,1.941,1.384,4.015,1.662,6.226
		c0.276,2.217,0.342,4.462,0.206,6.745c-0.139,2.283-0.206,4.395-0.206,6.33c0,1.108,0,2.353,0,3.737c0,1.384,0,3.458,0,6.226
		c0,2.768,0,6.504,0,11.207c0,4.706,0,10.998,0,18.883c0,1.526-0.104,3.151-0.313,4.88c-0.206,1.729-0.621,3.458-1.245,5.187
		c-0.624,1.732-1.453,3.287-2.489,4.671c-1.039,1.384-2.388,2.353-4.047,2.904c-3.6,1.523-7.369,2.251-11.311,2.179
		C1362.571,409.728,1358.73,409.69,1354.997,409.69z M1404.596,441.236c4.842,4.015,9.823,7.714,14.94,11.102
		c5.117,3.391,10.098,7.024,14.943,10.896c1.659,1.381,3.597,2.799,5.811,4.253c2.21,1.453,3.528,3.353,3.942,5.706
		c0.415,1.938,0.171,3.946-0.725,6.02c-0.902,2.074-2.112,3.737-3.632,4.981c-2.353,1.935-4.636,2.764-6.849,2.489
		c-2.213-0.279-4.566-0.969-7.055-2.074c-5.12-2.356-10.032-4.981-14.734-7.885c-4.706-2.907-9.411-5.953-14.111-9.133
		c-2.356-1.523-4.639-3.148-6.849-4.877c-2.217-1.729-4.43-3.353-6.641-4.877c-1.526-1.105-3.113-2.353-4.775-3.737
		c-1.659-1.381-3.597-1.935-5.811-1.659c-1.938,0.139-3.458,0.554-4.563,1.244c-1.111,0.694-2.356,1.593-3.737,2.698
		c-1.523,1.108-3.148,2.353-4.877,3.737c-1.732,1.384-3.217,2.625-4.462,3.733c-3.6,3.043-7.508,6.124-11.726,9.237
		c-4.221,3.113-8.338,5.706-12.347,7.78c-1.526,0.83-3.252,1.663-5.19,2.492s-3.873,1.485-5.811,1.97s-3.911,0.69-5.915,0.624
		c-2.005-0.073-3.838-0.519-5.497-1.349c-2.217-1.108-3.806-2.771-4.775-4.981c-0.969-2.214-1.108-4.497-0.415-6.849
		c0.69-2.353,2.248-4.427,4.671-6.226c2.419-1.799,4.462-3.391,6.121-4.772c5.257-4.012,10.928-8.198,17.018-12.556
		c6.086-4.357,11.831-8.474,17.227-12.347c2.35-1.799,4.699-3.353,7.055-4.671c2.35-1.314,4.703-2.939,7.055-4.877
		c4.012-3.043,8.021-4.807,12.036-5.291c4.012-0.484,8.439,1.349,13.281,5.497L1404.596,441.236z M1330.506,347.849
		c-1.245,0-2.385,0-3.423,0c-1.039,0-1.97,0.139-2.802,0.415c-1.938,0.139-3.528,0.969-4.772,2.489
		c-0.554,0.694-0.865,1.732-0.934,3.113c-0.07,1.384-0.104,2.217-0.104,2.492v8.715c-0.139,1.108-0.206,2.112-0.206,3.008
		c0,0.902,0,1.697,0,2.388v2.492c0,1.659,0.032,3.043,0.104,4.148c0.067,1.108,0.238,2.217,0.516,3.322
		c0.276,1.108,0.76,2.074,1.453,2.904c1.105,1.387,2.907,2.179,5.396,2.388c2.492,0.209,4.981,0.31,7.47,0.31h0.209
		c1.795,0,3.284,0,4.462,0c1.175,0,2.315,0,3.423,0c1.108,0,2.248,0,3.426,0c1.172,0,2.73,0,4.668,0
		c1.105,0,2.248,0.038,3.426,0.104c1.172,0.073,2.315-0.032,3.423-0.31c1.105-0.136,2.039-0.45,2.802-0.934
		c0.757-0.484,1.276-2.179,1.555-5.086l0.209-21.999c-0.139-1.105-0.177-2.21-0.104-3.319c0.067-1.105-0.035-2.214-0.31-3.322
		c-0.554-1.52-1.453-2.384-2.698-2.594c-1.248-0.206-2.492-0.31-3.737-0.31L1330.506,347.849z M1437.593,403.259
		c-0.279,1.938-0.624,3.528-1.039,4.772c-0.415,1.244-1.036,2.527-1.865,3.841c-0.833,1.314-1.941,2.384-3.322,3.214
		c-1.938,1.112-3.876,1.663-5.811,1.663c-2.353,0-4.636-0.76-6.849-2.283c-1.523-1.105-2.698-2.559-3.528-4.36
		c-1.108-2.074-1.833-4.357-2.179-6.846c-0.348-2.492-0.554-5.051-0.624-7.679c-0.07-2.625-0.035-5.222,0.104-7.784
		c0.136-2.559,0.209-5.013,0.209-7.366c0.136-5.947,0.206-12.211,0.206-18.781s0-12.765,0-18.576v-2.698
		c-0.139-1.52-0.174-3.144-0.104-4.877c0.07-1.729,0.314-3.353,0.728-4.877c0.551-2.074,1.795-4.288,3.737-6.64
		c1.105-1.381,2.66-2.388,4.668-3.008c2.004-0.624,4.183-0.795,6.536-0.519c4.151,0.693,6.919,2.489,8.303,5.396
		c0.83,1.799,1.21,4.015,1.14,6.64c-0.07,2.628-0.174,4.221-0.31,4.772V403.259z"/>
	<path fill="#E84034" d="M972.535,452.457c-3.186-0.136-6.194-0.586-9.028-1.349c-2.837-0.757-5.155-2.521-6.951-5.291
		c-1.526-2.35-2.252-4.877-2.182-7.575c0.07-2.698,1.07-5.013,3.011-6.951c1.105-1.108,2.489-1.938,4.148-2.492
		c1.662-0.551,3.252-0.966,4.775-1.244c1.52-0.276,2.869-0.415,4.047-0.415c1.172,0,1.83,0,1.97,0h113.103
		c2.213-0.136,4.601-0.136,7.16,0c2.559,0.139,4.946,0.589,7.16,1.349c2.213,0.763,4.082,2.008,5.605,3.737
		c1.52,1.729,2.283,4.117,2.283,7.16c0,3.458-1.178,6.051-3.528,7.78c-2.356,1.732-5.155,2.977-8.404,3.737
		c-3.255,0.76-6.609,1.175-10.067,1.244c-3.461,0.073-6.298,0.105-8.509,0.105h-8.094c-2.768,0.139-5.466,0.174-8.094,0.104
		c-2.628-0.07-5.326-0.104-8.094-0.104h-7.885c0.136,3.873,0.276,7.958,0.415,12.242c0.136,4.288-0.073,8.094-0.624,11.416
		c-0.279,2.625-0.931,5.152-1.97,7.575c-1.039,2.419-2.733,4.389-5.086,5.915c-2.074,1.381-4.497,2.106-7.264,2.179
		c-2.768,0.066-5.257-0.519-7.47-1.764c-1.799-1.108-3.148-2.698-4.047-4.775c-0.899-2.074-1.488-4.082-1.764-6.017
		c-0.279-1.523-0.383-3.186-0.31-4.981c0.067-1.799,0.104-3.461,0.104-4.981c-0.139-2.489-0.209-5.219-0.209-8.195
		c0-2.973,0-5.915,0-8.822h-5.187c-3.876,0-7.369,0.035-10.482,0.104c-3.113,0.073-6.121,0.139-9.028,0.209
		c-2.904,0.07-5.915,0.101-9.028,0.101C979.9,452.457,976.407,452.457,972.535,452.457z M980.834,387.294
		c0-0.136-0.035-1.659-0.101-4.566c-0.073-2.904-0.139-6.226-0.209-9.962c-0.073-3.733-0.104-7.435-0.104-11.102
		c0-3.664,0-6.257,0-7.78c-2.074-0.136-4.221-0.209-6.431-0.209c-2.217,0-4.326-0.206-6.33-0.621
		c-2.008-0.418-3.876-1.143-5.605-2.182c-1.729-1.035-3.148-2.66-4.253-4.877c-1.659-3.179-1.697-6.226-0.105-9.129
		c1.59-2.907,3.974-4.911,7.16-6.02c3.182-1.105,6.71-1.795,10.583-2.074c3.873-0.276,7.54-0.415,11.001-0.415
		c5.671,0,12.727,0,21.166,0c8.439,0,17.154,0.035,26.15,0.105c8.993,0.07,17.708,0.101,26.15,0.101c8.436,0,15.491,0,21.166,0
		c2.768,0,5.843,0.314,9.237,0.934c3.388,0.624,6.121,2.042,8.195,4.256c0.966,1.108,1.694,2.422,2.179,3.942
		c0.484,1.523,0.728,3.113,0.728,4.772c0,1.662-0.314,3.217-0.934,4.671c-0.624,1.453-1.558,2.666-2.802,3.632
		c-0.554,0.554-1.384,1.035-2.489,1.45c-2.631,1.112-5.5,1.526-8.613,1.248c-3.113-0.276-6.055-0.136-8.819,0.415
		c0.276,1.938,0.447,3.632,0.516,5.082c0.07,1.453,0.105,2.736,0.105,3.841v24.073c0-0.136,0.655-0.136,1.973,0
		c1.314,0.139,2.765,0.31,4.357,0.519c1.59,0.206,3.078,0.45,4.462,0.725c1.381,0.279,2.21,0.415,2.492,0.415
		c3.455,0.554,6.048,1.422,7.78,2.593c1.729,1.178,2.388,3.841,1.973,7.993c-0.279,3.458-1.007,5.985-2.179,7.575
		c-1.178,1.59-2.666,2.698-4.462,3.319c-1.802,0.624-3.911,0.902-6.33,0.83c-2.422-0.066-5.016-0.101-7.784-0.101
		c-3.597,0.139-7.16,0.174-10.687,0.101c-3.528-0.066-7.09-0.101-10.688-0.101c-1.799,0-4.256,0-7.369,0s-6.536,0-10.273,0
		c-3.734,0-7.644,0-11.723,0c-4.085,0-7.993,0-11.726,0c-3.737,0-7.16,0.035-10.273,0.101c-3.113,0.073-5.57,0.104-7.369,0.104
		c-3.733,0-7.438,0-11.102,0c-3.667,0-7.366-0.066-11.102-0.206c-1.799,0-3.876-0.136-6.226-0.418
		c-2.356-0.276-4.639-0.83-6.849-1.659c-2.214-0.83-4.117-1.97-5.706-3.423c-1.593-1.453-2.527-3.353-2.802-5.706
		c-0.415-3.182,0.241-5.57,1.973-7.16c1.729-1.59,3.87-2.733,6.431-3.426c2.559-0.69,5.295-1.07,8.198-1.14
		C976.271,387.744,978.76,387.573,980.834,387.294z M1005.946,380.859c0,0.415,0.104,1.248,0.31,2.492
		c0.209,1.245,0.589,2.422,1.143,3.528h45.448v-19.092c0-1.799-0.035-3.287-0.101-4.462c-0.073-1.175-0.139-2.419-0.209-3.737
		c-0.073-1.314-0.174-2.454-0.31-3.423c0-0.833-0.209-1.59-0.624-2.283h-44.618c-0.554,0.554-0.902,1.314-1.039,2.283
		c-0.279,1.108-0.345,2.837-0.206,5.187c0.136,2.353,0.275,4.497,0.415,6.435L1005.946,380.859z"/>
	<path fill="#E84034" d="M1133.783,476.115c-2.217-0.139-4.395-0.45-6.539-0.934s-4.047-1.175-5.706-2.074
		c-1.659-0.902-3.008-2.179-4.047-3.838c-1.036-1.662-1.555-3.876-1.555-6.64c0-2.768,0.896-5.19,2.698-7.264
		c1.105-1.105,2.489-1.938,4.148-2.492c1.662-0.551,3.249-0.966,4.775-1.245c1.52-0.275,2.869-0.415,4.047-0.415
		c1.172,0,1.83,0,1.97,0l113.518,0.209c3.597,0,6.881,0.035,9.858,0.101c2.974,0.073,5.637,1.073,7.993,3.011
		c2.904,2.628,4.357,5.602,4.357,8.924c0,2.074-0.624,3.974-1.868,5.706c-1.245,1.729-2.907,2.939-4.981,3.632
		c-2.768,1.105-5.64,1.868-8.613,2.283c-2.977,0.415-5.912,0.69-8.819,0.83c-10.102,0.415-20.061,0.551-29.884,0.415
		c-9.826-0.139-19.37-0.209-28.639-0.209c-9.962,0-19.684,0.07-29.158,0.209C1147.859,476.461,1140.009,476.391,1133.783,476.115z
		 M1250,402.652c1.52,0.693,2.73,1.833,3.632,3.423c0.899,1.593,1.555,3.148,1.97,4.671c0.694,3.043,0,5.811-2.074,8.3
		c-1.938,2.353-4.253,4.151-6.951,5.396s-5.573,2.112-8.613,2.593c-3.046,0.488-6.159,0.728-9.338,0.728c-3.186,0-6.159,0-8.924,0
		c-11.071,0-22.243,0.101-33.516,0.31c-11.28,0.206-22.518,0.174-33.725-0.104c-1.938,0-3.942-0.104-6.017-0.31
		c-2.077-0.209-4.085-0.624-6.02-1.245c-1.938-0.624-3.702-1.558-5.292-2.802c-1.593-1.245-2.872-2.834-3.841-4.775
		c-1.245-2.489-2.109-5.323-2.594-8.509c-0.484-3.179-0.798-6.501-0.934-9.959c-0.139-3.458-0.174-6.849-0.101-10.168
		c0.067-3.322,0.101-6.295,0.101-8.927v-20.13c0-0.275-0.07-1.311-0.206-3.113c-0.139-1.795-0.177-3.838-0.104-6.121
		c0.067-2.283,0.276-4.633,0.624-7.055c0.342-2.419,1.067-4.462,2.179-6.121c0.83-1.384,2.144-2.492,3.943-3.322
		c1.795-0.83,3.632-1.453,5.5-1.868c1.865-0.415,3.559-0.69,5.083-0.83c1.52-0.136,2.492-0.209,2.907-0.209h83.01
		c0.136,0,1.245,0.038,3.322,0.104c2.074,0.073,4.357,0.314,6.846,0.728c2.492,0.415,4.911,1.175,7.264,2.283
		c2.353,1.108,3.873,2.768,4.566,4.978c0.136,0.833,0.276,1.837,0.415,3.011c0.136,1.175,0.209,2.384,0.209,3.632
		c0,1.245-0.104,2.419-0.313,3.528c-0.206,1.108-0.45,1.938-0.725,2.489c-0.554,0.969-1.523,1.764-2.907,2.388
		c-1.384,0.621-2.628,1.073-3.734,1.349c-1.244,0.279-2.837,0.554-4.775,0.83c-1.938,0.279-4.221,0.415-6.846,0.415h-6.435
		c-5.396-0.276-10.307-0.447-14.734-0.519c-4.43-0.067-8.819-0.067-13.18,0c-4.357,0.073-8.889,0.139-13.591,0.209
		c-4.706,0.07-10.168,0.174-16.394,0.31c-1.111,0-2.321-0.07-3.632-0.209c-1.317-0.136-2.631-0.136-3.946,0
		c-1.314,0.139-2.489,0.415-3.528,0.833c-1.036,0.415-1.694,1.175-1.97,2.28c-0.554,2.356-0.763,5.26-0.624,8.718
		c0.136,3.461,0.07,6.435-0.206,8.924c0,0.969-0.038,2.422-0.104,4.357c-0.073,1.941-0.073,3.942,0,6.02
		c0.066,2.074,0.31,4.015,0.725,5.811c0.415,1.799,1.105,2.977,2.077,3.528c1.105,0.694,2.559,1.039,4.357,1.039
		c1.795,0,3.249,0,4.357,0c11.207,0.415,22.274,0.516,33.205,0.31c10.928-0.209,21.859-0.31,32.791-0.31
		C1239.831,399.539,1245.433,400.575,1250,402.652z"/>
	<path fill="#E84034" d="M1343.802,412.611c-0.969,0.139-3.046,0.209-6.226,0.209c-3.186,0-6.574-0.032-10.171-0.105
		c-3.597-0.066-7.024-0.104-10.273-0.104c-3.252,0-5.431,0-6.536,0h-0.209c-2.489,0-4.946-0.032-7.366-0.101
		c-2.422-0.07-4.74-0.276-6.954-0.624c-2.214-0.345-4.221-0.934-6.017-1.764c-1.799-0.83-3.252-2.074-4.357-3.737
		c-1.248-1.796-2.112-4.079-2.597-6.846c-0.484-2.768-0.83-5.431-1.036-7.993c-0.209-2.555-0.279-4.804-0.209-6.742
		s0.104-2.973,0.104-3.113v-4.566c0-1.523,0-3.249,0-5.19c0-1.935,0.067-4.079,0.209-6.431c0-2.492,0.032-4.946,0.101-7.369
		c0.07-2.419,0.104-4.598,0.104-6.536v-6.64c0-0.415,0-1.175,0-2.283c0-1.105,0.07-2.315,0.209-3.632
		c0.136-1.314,0.342-2.628,0.621-3.942c0.276-1.314,0.69-2.388,1.245-3.217c1.248-1.935,2.524-3.353,3.841-4.256
		c1.314-0.896,3.008-1.555,5.083-1.97c0.693-0.136,1.729-0.241,3.113-0.31s2.698-0.174,3.946-0.314
		c1.52-0.136,3.113-0.206,4.772-0.206h44.827c3.04,0,6.257,0.241,9.649,0.725c3.388,0.488,6.4,1.558,9.028,3.217
		c2.074,1.244,3.528,2.837,4.357,4.772c0.83,1.941,1.384,4.015,1.662,6.226c0.276,2.217,0.342,4.462,0.206,6.745
		c-0.139,2.283-0.206,4.395-0.206,6.33c0,1.108,0,2.353,0,3.737s0,3.458,0,6.226c0,2.768,0,6.504,0,11.207
		c0,4.706,0,10.998,0,18.883c0,1.526-0.104,3.151-0.313,4.88c-0.206,1.729-0.621,3.458-1.245,5.187
		c-0.624,1.732-1.453,3.287-2.489,4.671c-1.039,1.384-2.388,2.353-4.047,2.904c-3.6,1.523-7.369,2.251-11.311,2.179
		C1351.376,412.649,1347.535,412.611,1343.802,412.611z M1393.401,444.158c4.842,4.015,9.823,7.714,14.94,11.102
		c5.117,3.391,10.099,7.024,14.943,10.896c1.659,1.381,3.597,2.799,5.811,4.253c2.21,1.453,3.528,3.353,3.943,5.706
		c0.415,1.938,0.171,3.946-0.725,6.02c-0.902,2.074-2.112,3.737-3.632,4.981c-2.353,1.935-4.636,2.764-6.849,2.489
		c-2.214-0.279-4.566-0.969-7.055-2.074c-5.12-2.356-10.032-4.981-14.734-7.885c-4.706-2.907-9.411-5.953-14.11-9.133
		c-2.356-1.523-4.639-3.148-6.849-4.877c-2.217-1.729-4.43-3.353-6.641-4.877c-1.526-1.105-3.113-2.353-4.775-3.737
		c-1.659-1.381-3.597-1.935-5.811-1.659c-1.938,0.139-3.458,0.554-4.563,1.245c-1.112,0.693-2.356,1.593-3.737,2.698
		c-1.523,1.108-3.148,2.353-4.877,3.737c-1.732,1.384-3.217,2.625-4.462,3.733c-3.6,3.043-7.508,6.124-11.726,9.237
		c-4.221,3.113-8.338,5.706-12.347,7.78c-1.526,0.83-3.252,1.662-5.19,2.492c-1.938,0.83-3.873,1.485-5.811,1.97
		s-3.911,0.69-5.915,0.624c-2.005-0.073-3.838-0.519-5.497-1.349c-2.217-1.108-3.806-2.771-4.775-4.981
		c-0.969-2.213-1.108-4.497-0.415-6.849c0.69-2.353,2.248-4.427,4.671-6.226c2.419-1.799,4.462-3.391,6.121-4.772
		c5.257-4.012,10.928-8.198,17.018-12.556c6.086-4.357,11.831-8.474,17.227-12.347c2.35-1.799,4.699-3.353,7.055-4.671
		c2.35-1.314,4.702-2.939,7.055-4.877c4.012-3.043,8.021-4.807,12.036-5.291c4.012-0.484,8.439,1.349,13.281,5.497L1393.401,444.158
		z M1319.311,350.77c-1.245,0-2.385,0-3.423,0c-1.039,0-1.97,0.139-2.802,0.415c-1.938,0.139-3.528,0.969-4.772,2.489
		c-0.554,0.694-0.865,1.732-0.934,3.113c-0.07,1.384-0.104,2.217-0.104,2.492v8.715c-0.139,1.108-0.206,2.112-0.206,3.008
		c0,0.902,0,1.697,0,2.388v2.492c0,1.659,0.032,3.043,0.104,4.148c0.067,1.108,0.238,2.217,0.516,3.322
		c0.276,1.108,0.76,2.074,1.453,2.904c1.105,1.387,2.907,2.179,5.396,2.388c2.492,0.209,4.981,0.31,7.47,0.31h0.209
		c1.796,0,3.284,0,4.462,0c1.175,0,2.315,0,3.423,0c1.108,0,2.248,0,3.426,0c1.172,0,2.73,0,4.668,0
		c1.105,0,2.248,0.038,3.426,0.104c1.172,0.073,2.315-0.032,3.423-0.31c1.105-0.136,2.039-0.45,2.802-0.934
		c0.757-0.484,1.276-2.179,1.555-5.086l0.209-21.999c-0.139-1.105-0.177-2.21-0.104-3.319c0.067-1.105-0.035-2.214-0.31-3.322
		c-0.554-1.52-1.453-2.384-2.698-2.593c-1.248-0.206-2.492-0.31-3.737-0.31L1319.311,350.77z M1426.398,406.18
		c-0.279,1.938-0.624,3.528-1.039,4.772c-0.415,1.245-1.036,2.527-1.865,3.841c-0.833,1.314-1.941,2.384-3.322,3.214
		c-1.938,1.112-3.876,1.663-5.811,1.663c-2.353,0-4.636-0.76-6.849-2.283c-1.523-1.105-2.698-2.559-3.528-4.36
		c-1.108-2.074-1.833-4.357-2.179-6.846c-0.348-2.492-0.554-5.051-0.624-7.679c-0.07-2.625-0.035-5.222,0.104-7.784
		c0.136-2.559,0.209-5.013,0.209-7.366c0.136-5.947,0.206-12.211,0.206-18.781c0-6.571,0-12.765,0-18.576v-2.698
		c-0.139-1.52-0.174-3.144-0.104-4.877c0.07-1.729,0.313-3.353,0.728-4.877c0.551-2.074,1.796-4.288,3.737-6.64
		c1.105-1.381,2.66-2.388,4.668-3.008c2.005-0.624,4.183-0.795,6.536-0.519c4.151,0.694,6.919,2.489,8.303,5.396
		c0.83,1.799,1.21,4.015,1.14,6.64c-0.07,2.628-0.174,4.221-0.31,4.772V406.18z"/>
</g>
</svg>
